<mxfile host="app.diagrams.net" modified="2024-07-04T12:24:24.500Z" agent="Mozilla/5.0 (Macintosh; Intel Mac OS X 10_15_7) AppleWebKit/605.1.15 (KHTML, like Gecko) Version/17.5 Safari/605.1.15" etag="WxAl_34T5_k1GRVa-VKK" version="24.6.4" type="device">
  <diagram id="C5RBs43oDa-KdzZeNtuy" name="Page-1">
    <mxGraphModel dx="2074" dy="802" grid="1" gridSize="10" guides="1" tooltips="1" connect="1" arrows="1" fold="1" page="1" pageScale="1" pageWidth="827" pageHeight="1169" math="0" shadow="0">
      <root>
        <mxCell id="WIyWlLk6GJQsqaUBKTNV-0" />
        <mxCell id="WIyWlLk6GJQsqaUBKTNV-1" parent="WIyWlLk6GJQsqaUBKTNV-0" />
        <mxCell id="hN1p_wPI-tIlVskCNjmv-0" style="edgeStyle=orthogonalEdgeStyle;rounded=0;orthogonalLoop=1;jettySize=auto;html=1;exitX=0.5;exitY=1;exitDx=0;exitDy=0;entryX=0.5;entryY=0;entryDx=0;entryDy=0;" edge="1" parent="WIyWlLk6GJQsqaUBKTNV-1" source="hN1p_wPI-tIlVskCNjmv-1" target="hN1p_wPI-tIlVskCNjmv-2">
          <mxGeometry relative="1" as="geometry" />
        </mxCell>
        <mxCell id="hN1p_wPI-tIlVskCNjmv-1" value="" style="ellipse;whiteSpace=wrap;html=1;aspect=fixed;fillColor=#000000;" vertex="1" parent="WIyWlLk6GJQsqaUBKTNV-1">
          <mxGeometry x="399" y="40" width="40" height="40" as="geometry" />
        </mxCell>
        <mxCell id="hN1p_wPI-tIlVskCNjmv-19" style="edgeStyle=orthogonalEdgeStyle;rounded=0;orthogonalLoop=1;jettySize=auto;html=1;exitX=0.5;exitY=1;exitDx=0;exitDy=0;entryX=0.5;entryY=0;entryDx=0;entryDy=0;" edge="1" parent="WIyWlLk6GJQsqaUBKTNV-1" source="hN1p_wPI-tIlVskCNjmv-2" target="hN1p_wPI-tIlVskCNjmv-3">
          <mxGeometry relative="1" as="geometry" />
        </mxCell>
        <mxCell id="hN1p_wPI-tIlVskCNjmv-2" value="User Initiate a Chat" style="rounded=1;whiteSpace=wrap;html=1;" vertex="1" parent="WIyWlLk6GJQsqaUBKTNV-1">
          <mxGeometry x="359" y="120" width="120" height="30" as="geometry" />
        </mxCell>
        <mxCell id="hN1p_wPI-tIlVskCNjmv-18" style="edgeStyle=orthogonalEdgeStyle;rounded=0;orthogonalLoop=1;jettySize=auto;html=1;exitX=0.5;exitY=1;exitDx=0;exitDy=0;entryX=0.5;entryY=0;entryDx=0;entryDy=0;" edge="1" parent="WIyWlLk6GJQsqaUBKTNV-1" source="hN1p_wPI-tIlVskCNjmv-3" target="hN1p_wPI-tIlVskCNjmv-4">
          <mxGeometry relative="1" as="geometry" />
        </mxCell>
        <mxCell id="hN1p_wPI-tIlVskCNjmv-3" value="User Types Query" style="rounded=1;whiteSpace=wrap;html=1;" vertex="1" parent="WIyWlLk6GJQsqaUBKTNV-1">
          <mxGeometry x="359" y="190" width="120" height="30" as="geometry" />
        </mxCell>
        <mxCell id="hN1p_wPI-tIlVskCNjmv-17" style="edgeStyle=orthogonalEdgeStyle;rounded=0;orthogonalLoop=1;jettySize=auto;html=1;exitX=0.5;exitY=1;exitDx=0;exitDy=0;entryX=0.5;entryY=0;entryDx=0;entryDy=0;" edge="1" parent="WIyWlLk6GJQsqaUBKTNV-1" source="hN1p_wPI-tIlVskCNjmv-4" target="hN1p_wPI-tIlVskCNjmv-5">
          <mxGeometry relative="1" as="geometry" />
        </mxCell>
        <mxCell id="hN1p_wPI-tIlVskCNjmv-4" value="FastBot API" style="rounded=1;whiteSpace=wrap;html=1;" vertex="1" parent="WIyWlLk6GJQsqaUBKTNV-1">
          <mxGeometry x="359" y="250" width="120" height="30" as="geometry" />
        </mxCell>
        <mxCell id="hN1p_wPI-tIlVskCNjmv-16" style="edgeStyle=orthogonalEdgeStyle;rounded=0;orthogonalLoop=1;jettySize=auto;html=1;exitX=0.5;exitY=1;exitDx=0;exitDy=0;entryX=0.5;entryY=0;entryDx=0;entryDy=0;" edge="1" parent="WIyWlLk6GJQsqaUBKTNV-1" source="hN1p_wPI-tIlVskCNjmv-5" target="hN1p_wPI-tIlVskCNjmv-6">
          <mxGeometry relative="1" as="geometry" />
        </mxCell>
        <mxCell id="hN1p_wPI-tIlVskCNjmv-5" value="Process Query" style="rounded=1;whiteSpace=wrap;html=1;" vertex="1" parent="WIyWlLk6GJQsqaUBKTNV-1">
          <mxGeometry x="359" y="310" width="120" height="30" as="geometry" />
        </mxCell>
        <mxCell id="hN1p_wPI-tIlVskCNjmv-14" style="edgeStyle=orthogonalEdgeStyle;rounded=0;orthogonalLoop=1;jettySize=auto;html=1;exitX=0;exitY=0.5;exitDx=0;exitDy=0;entryX=0.5;entryY=0;entryDx=0;entryDy=0;" edge="1" parent="WIyWlLk6GJQsqaUBKTNV-1" source="hN1p_wPI-tIlVskCNjmv-6" target="hN1p_wPI-tIlVskCNjmv-7">
          <mxGeometry relative="1" as="geometry" />
        </mxCell>
        <mxCell id="hN1p_wPI-tIlVskCNjmv-20" value="Success" style="edgeLabel;html=1;align=center;verticalAlign=middle;resizable=0;points=[];" vertex="1" connectable="0" parent="hN1p_wPI-tIlVskCNjmv-14">
          <mxGeometry x="0.2138" y="4" relative="1" as="geometry">
            <mxPoint as="offset" />
          </mxGeometry>
        </mxCell>
        <mxCell id="hN1p_wPI-tIlVskCNjmv-15" style="edgeStyle=orthogonalEdgeStyle;rounded=0;orthogonalLoop=1;jettySize=auto;html=1;exitX=1;exitY=0.5;exitDx=0;exitDy=0;entryX=0.5;entryY=0;entryDx=0;entryDy=0;" edge="1" parent="WIyWlLk6GJQsqaUBKTNV-1" source="hN1p_wPI-tIlVskCNjmv-6" target="hN1p_wPI-tIlVskCNjmv-8">
          <mxGeometry relative="1" as="geometry" />
        </mxCell>
        <mxCell id="hN1p_wPI-tIlVskCNjmv-21" value="Failure" style="edgeLabel;html=1;align=center;verticalAlign=middle;resizable=0;points=[];" vertex="1" connectable="0" parent="hN1p_wPI-tIlVskCNjmv-15">
          <mxGeometry x="0.2552" y="-1" relative="1" as="geometry">
            <mxPoint as="offset" />
          </mxGeometry>
        </mxCell>
        <mxCell id="hN1p_wPI-tIlVskCNjmv-6" value="Query Processing ?" style="rhombus;whiteSpace=wrap;html=1;" vertex="1" parent="WIyWlLk6GJQsqaUBKTNV-1">
          <mxGeometry x="359" y="370" width="120" height="110" as="geometry" />
        </mxCell>
        <mxCell id="hN1p_wPI-tIlVskCNjmv-13" style="edgeStyle=orthogonalEdgeStyle;rounded=0;orthogonalLoop=1;jettySize=auto;html=1;exitX=0.5;exitY=1;exitDx=0;exitDy=0;entryX=0.5;entryY=0;entryDx=0;entryDy=0;" edge="1" parent="WIyWlLk6GJQsqaUBKTNV-1" source="hN1p_wPI-tIlVskCNjmv-7" target="hN1p_wPI-tIlVskCNjmv-9">
          <mxGeometry relative="1" as="geometry" />
        </mxCell>
        <mxCell id="hN1p_wPI-tIlVskCNjmv-7" value="Receive Response" style="rounded=1;whiteSpace=wrap;html=1;" vertex="1" parent="WIyWlLk6GJQsqaUBKTNV-1">
          <mxGeometry x="239" y="510" width="120" height="30" as="geometry" />
        </mxCell>
        <mxCell id="hN1p_wPI-tIlVskCNjmv-12" style="edgeStyle=orthogonalEdgeStyle;rounded=0;orthogonalLoop=1;jettySize=auto;html=1;exitX=0.5;exitY=1;exitDx=0;exitDy=0;entryX=0.5;entryY=0;entryDx=0;entryDy=0;" edge="1" parent="WIyWlLk6GJQsqaUBKTNV-1" source="hN1p_wPI-tIlVskCNjmv-8" target="hN1p_wPI-tIlVskCNjmv-10">
          <mxGeometry relative="1" as="geometry" />
        </mxCell>
        <mxCell id="hN1p_wPI-tIlVskCNjmv-8" value="Show Error" style="rounded=1;whiteSpace=wrap;html=1;" vertex="1" parent="WIyWlLk6GJQsqaUBKTNV-1">
          <mxGeometry x="479" y="510" width="120" height="30" as="geometry" />
        </mxCell>
        <mxCell id="hN1p_wPI-tIlVskCNjmv-11" style="edgeStyle=orthogonalEdgeStyle;rounded=0;orthogonalLoop=1;jettySize=auto;html=1;exitX=0.5;exitY=1;exitDx=0;exitDy=0;entryX=0;entryY=0.5;entryDx=0;entryDy=0;" edge="1" parent="WIyWlLk6GJQsqaUBKTNV-1" source="hN1p_wPI-tIlVskCNjmv-9" target="hN1p_wPI-tIlVskCNjmv-10">
          <mxGeometry relative="1" as="geometry" />
        </mxCell>
        <mxCell id="hN1p_wPI-tIlVskCNjmv-9" value="Display Respose to User" style="rounded=1;whiteSpace=wrap;html=1;" vertex="1" parent="WIyWlLk6GJQsqaUBKTNV-1">
          <mxGeometry x="239" y="590" width="120" height="30" as="geometry" />
        </mxCell>
        <mxCell id="hN1p_wPI-tIlVskCNjmv-10" value="" style="ellipse;whiteSpace=wrap;html=1;aspect=fixed;fillColor=#000000;" vertex="1" parent="WIyWlLk6GJQsqaUBKTNV-1">
          <mxGeometry x="399" y="640" width="40" height="40" as="geometry" />
        </mxCell>
      </root>
    </mxGraphModel>
  </diagram>
</mxfile>
